<svg xmlns="http://www.w3.org/2000/svg" width="23.25" height="25.833" viewBox="0 0 23.25 25.833">
  <path id="Path_7" data-name="Path 7" d="M23.667,3.583H22.375V1H19.792V3.583H9.458V1H6.875V3.583H5.583A2.583,2.583,0,0,0,3,6.167V24.25a2.583,2.583,0,0,0,2.583,2.583H23.667A2.591,2.591,0,0,0,26.25,24.25V6.167A2.591,2.591,0,0,0,23.667,3.583ZM14.625,7.458a3.875,3.875,0,1,1-3.875,3.875A3.87,3.87,0,0,1,14.625,7.458Zm7.75,15.5H6.875V21.667c0-2.583,5.167-4,7.75-4s7.75,1.421,7.75,4Z" transform="translate(-3 -1)" fill="#fff"/>
</svg>
