<svg xmlns="http://www.w3.org/2000/svg" width="88.337" height="88.337" viewBox="0 0 88.337 88.337">
  <path id="Path_147" data-name="Path 147" d="M46.124,2A44.169,44.169,0,1,0,90.337,46.169,44.147,44.147,0,0,0,46.124,2Zm.044,79.5A35.335,35.335,0,1,1,81.5,46.169,35.325,35.325,0,0,1,46.169,81.5ZM61.628,41.752A6.625,6.625,0,1,0,55,35.126,6.616,6.616,0,0,0,61.628,41.752Zm-30.918,0a6.625,6.625,0,1,0-6.625-6.625A6.616,6.616,0,0,0,30.71,41.752Zm15.459,28.71A24.276,24.276,0,0,0,68.739,55H23.6A24.276,24.276,0,0,0,46.169,70.461Z" transform="translate(-2 -2)" fill="#4e4e4e"/>
</svg>
